<?xml version="1.0" encoding="utf-8"?>
<!-- Generator: Adobe Illustrator 23.0.4, SVG Export Plug-In . SVG Version: 6.00 Build 0)  -->
<svg version="1.1" id="Layer_1" xmlns="http://www.w3.org/2000/svg" xmlns:xlink="http://www.w3.org/1999/xlink" x="0px" y="0px"
	 viewBox="0 0 17 17" style="enable-background:new 0 0 17 17;" xml:space="preserve">
<style type="text/css">
	.st0{fill:#E5ECEC;}
</style>
<path class="st0" d="M15.5,0.5h-14c-0.27,0-0.52,0.11-0.71,0.29C0.61,0.98,0.5,1.23,0.5,1.5v14c0,0.27,0.11,0.52,0.29,0.71
	C0.98,16.4,1.23,16.5,1.5,16.5h14c0.27,0,0.52-0.11,0.71-0.29s0.29-0.44,0.29-0.71v-14c0-0.27-0.11-0.52-0.29-0.71
	C16.02,0.61,15.77,0.5,15.5,0.5L15.5,0.5z M13.79,4.29l-0.86,0.82c-0.04,0.03-0.07,0.06-0.08,0.11c-0.02,0.04-0.02,0.09-0.02,0.13
	v6.04c-0.01,0.05,0,0.09,0.02,0.13s0.05,0.08,0.08,0.11l0.84,0.82v0.18H9.56v-0.18l0.87-0.84c0.09-0.09,0.09-0.11,0.09-0.24V6.49
	L8.1,12.62H7.77L4.96,6.49v4.11c-0.01,0.09,0,0.17,0.02,0.25c0.03,0.08,0.07,0.16,0.13,0.22l1.13,1.37v0.18h-3.2v-0.18l1.13-1.37
	c0.06-0.06,0.1-0.14,0.13-0.22s0.03-0.17,0.02-0.25V5.85c0.01-0.07,0-0.13-0.03-0.19C4.27,5.6,4.23,5.54,4.18,5.5l-1-1.21V4.11H6.3
	l2.4,5.28l2.12-5.28h2.97L13.79,4.29z"/>
</svg>
