<?xml version="1.0" encoding="utf-8"?>
<!-- Generator: Adobe Illustrator 23.0.4, SVG Export Plug-In . SVG Version: 6.00 Build 0)  -->
<svg version="1.1" id="Layer_1" xmlns="http://www.w3.org/2000/svg" xmlns:xlink="http://www.w3.org/1999/xlink" x="0px" y="0px"
	 viewBox="0 0 17 17" style="enable-background:new 0 0 17 17;" xml:space="preserve">
<style type="text/css">
	.st0{fill:#E5ECEC;}
</style>
<path class="st0" d="M16.5,3.5c-0.6,0.3-1.2,0.4-1.9,0.5c0.7-0.4,1.2-1,1.4-1.8c-0.6,0.4-1.3,0.6-2.1,0.8c-0.6-0.6-1.5-1-2.4-1
	C9.8,2,8.3,3.5,8.3,5.3c0,0.3,0,0.5,0.1,0.7C5.7,5.9,3.2,4.6,1.6,2.6c-0.3,0.5-0.4,1-0.4,1.7c0,1.1,0.6,2.1,1.5,2.7
	c-0.5,0-1-0.2-1.5-0.4c0,1.6,1.1,2.9,2.6,3.2C3.5,9.9,3.2,9.9,2.9,9.9c-0.2,0-0.4,0-0.6-0.1c0.4,1.3,1.6,2.3,3.1,2.3
	c-1.1,0.9-2.5,1.4-4.1,1.4c-0.3,0-0.5,0-0.8,0C2,14.4,3.7,15,5.5,15c6,0,9.3-5,9.3-9.3c0-0.1,0-0.3,0-0.4
	C15.5,4.8,16.1,4.2,16.5,3.5z"/>
</svg>
